<svg id="ha-logo" xmlns="http://www.w3.org/2000/svg" viewBox="0 0 974.36 840.6"><path d="M946.54,509q16.77-9.71,23.85-11.48Q981,492.22,981,480.73q0-9.71-11.47-19.43L868,391.55l-21.08,19.88c-2.14-10-4.68-19.84-7.52-29.56q53.6-32.26,117.78-80.38,4.41-5.28,15.9-6.19,15,0,15-10.58,0-7.07-8.83-15l-94.48-78.58-50.33,45H788.49V146.08a26.58,26.58,0,0,1,7.07-11.48q9.71-5.29,9.71-12.36,0-13.24-27.36-15L653.4,98.41q3.52,20.31,3.53,34.43v9.32a421.15,421.15,0,0,0-487.5,31.11c-6.44-.75-12.87-1.52-19.33-2.46l5.1,14.6C68.41,262.59,13.69,375,13.69,500.29c0,143.54,165,338.5,229.52,366.29S363.36,918.5,433,918.5c67.48,0,130.19-12,185.72-39q82.57-30.81,138-71.22,62.68,65.34,166,111.24,1.77-107.7,61.81-148.32V750q-78.6-14.13-138.64-38Q896.22,637,946.54,509ZM656.93,449.82h-45V260h45Zm155.41,24.73q-28.26,111.26-62.69,184.54a200.17,200.17,0,0,1-26.5-23.84q-60-66.21-80.35-160.7Zm-188.08,0Q649,645.87,702.84,737.68C660.35,795.84,598.5,852.5,506,891.42c-18,6.08-34.81,10.08-57,8.58,58.93-67.51,100.86-138,125.82-206.48q37.06-106.83,37.09-202.19V474.55Zm181.89-24.73H788.49V318.39A395.9,395.9,0,0,1,813,377.13l-.7,3.82,2.86,2.87a394.74,394.74,0,0,1,11.19,46.92ZM834.41,260l-13.13,72a419.71,419.71,0,0,0-32.79-60.85V260ZM435,102.73a395.68,395.68,0,0,1,221.91,67.66v65.76H618.09L484.75,180.51a321,321,0,0,1,7.07,66.23V491.33q0,182.79-14.13,248.11-14.07,74.38-56.07,158.08A396.06,396.06,0,0,1,286.36,869c10.37-1.88,15.61-5.9,15.61-12.15V798.6h38v16.78q0,24.71,20.31,24.73,4.39,0,70.62-8.83,15.9-2.65,15.91-12.37V477.2c1.75-2.94,5.3-5.59,10.6-7.95q9.69-4.41,9.7-12.36c0-3.52-3.54-7.95-10.6-13.25l-75.05-45-43.26,38H304.62l-4.41-4.43q37.08-83.85,71.53-230.44H460q17.64,0,17.65-17.68,0-7-15.9-19.41l-70.63-56.52-58.28,69.75H246.35c-13.87,0-27.81-.53-41.79-1.42A395.66,395.66,0,0,1,435,102.73ZM302,773.87V460.42h38V773.87ZM37.46,500.29c0-115.32,49.15-219.13,127.59-291.75a618.73,618.73,0,0,1,63.64-6.82q-8.83,143.05-24.73,226-21.19,107.72-57.39,201.31l14.13,10.6q16.76-15.9,34.43-36.21V817.29C99.36,744.7,37.46,629.74,37.46,500.29Z" transform="translate(-13.69 -78.96)" style="opacity:0.98"/></svg>