<svg id="hametuha-logo" xmlns="http://www.w3.org/2000/svg" viewBox="0 0 380 147"><path d="M23.31,36.53A3.66,3.66,0,0,0,20.58,40c0,1,1.72,2.34,2.84,2.86.07-.45-1.83-.24-2.31-.77H11.17L9.29,37.75h11.3A3.45,3.45,0,0,1,23.52,36a3.63,3.63,0,0,1,2.88,1.65A4,4,0,0,0,23.31,36.53Z" transform="translate(0 -22.8)"/><path d="M157.34,69.69c0,3.62,3.52,6.56,7.85,6.56a9,9,0,0,0,4.33-1.08,7.56,7.56,0,0,0,2.33-1.68,7.43,7.43,0,0,0,2.09-5.3,8.55,8.55,0,0,0-4.34-7.59c-3-1.89-9.25-1.31-14.69-1.34l-1.07.5C156.08,60.83,157.34,68.41,157.34,69.69Z" transform="translate(0 -22.8)"/><path d="M165.93,39.41a10.84,10.84,0,0,1,1.76,4.15c.1.38.19.76.26,1.14l.21,1.14a20.38,20.38,0,0,0,1.44,4.87c.62,1.37,2,2,4.13,2a6.22,6.22,0,0,0,4.86-2.16A8.16,8.16,0,0,0,180.5,45a8.33,8.33,0,0,0-4.29-7.39q-4.29-2.73-12.8-3.4l-.88,2.11A11.61,11.61,0,0,1,165.93,39.41Z" transform="translate(0 -22.8)"/><path d="M282.41,43.34a38.45,38.45,0,0,1,3.14,7.47c.08.34.16.66.26,1l.12.4c.15-2.65.69-4.46,2.51-4.46,2.36,0,7.1,5.38,7.1,9.36s-3.92,6.47-6.28,6.47c-1.51,0-2.47-2-3-4.48,0,2.28,0,4.41.33,5.14.79,1.55,2.42,3.25,4.19,2.32,6.06-3.18,9.57-6.7,8.73-10a18.07,18.07,0,0,1-.55-5.48,4.11,4.11,0,0,1-3.45,1.37c-2.08,0-2.88-2.17-2.88-4.21s1-2.78,3.08-2.78a3.59,3.59,0,0,1,2.9,1.64,12.17,12.17,0,0,0-4.55-7q-4.68-3.62-15.17-5.82A81.42,81.42,0,0,0,282.41,43.34Z" transform="translate(0 -22.8)"/><path d="M277.19,82.47c.07.35.14.67.2,1s.12.59.2.88c.57,2.41,6.42,5.36,2,6-1.77.27,2.22,2.43,4.41,2.43a5.24,5.24,0,0,0,4.53-2.72,13.17,13.17,0,0,0,1.76-7.22,13.18,13.18,0,0,0-4.61-10.6c-3.64-3.08-6.91-1-6.92-1-2.25-1.64-8.21-2.21-15.7-4,5.86,2.18,5.61,2.24,7.15,3.11,2.32,1.32,3.26,3.34,4.36,5.31A28,28,0,0,1,277.19,82.47Z" transform="translate(0 -22.8)"/><path d="M367.16,133.1a92.62,92.62,0,0,1-9.2-21q2.31-1.18,8.77-5.53l8.88-5.82,2,.45a1.65,1.65,0,0,0,1.67-.26,1.68,1.68,0,0,0,.58-1.22,3.72,3.72,0,0,0-.29-1.32,4,4,0,0,0-1-1.4L367.07,84.31q-2.94,7.36-5.51,13.33T356.8,108q-1.85-7.29-3.08-14.72t-1.88-15.17L365.17,76l3.58.52a2.78,2.78,0,0,0,2.07-.59,2,2,0,0,0,.75-1.55,4.16,4.16,0,0,0-.43-1.8,6.19,6.19,0,0,0-1.35-1.8L358.71,59.28a131,131,0,0,1-18.24,10.23q-9.69,4.5-20.53,8.32v-24a211.59,211.59,0,0,0,21.17-1.62q11.25-1.4,24.18-3.61l4.61.88a3.87,3.87,0,0,0,2.14-.1,1.24,1.24,0,0,0,.69-1.22,4.26,4.26,0,0,0-.35-1.47,3.82,3.82,0,0,0-1.15-1.55l-13-12.52Q348,38.44,338.54,42.75A157,157,0,0,1,321,49.54c0-1.63-3.23-3.86-3.68-5.13,0,2.93.71,8.18-.92,8.18s-5.15-4.6-5.15-7.52,1.93-7,3.56-7c.87,0,1.53,1,2,2.33-.17-2.08-.38-4-1.29-4-1.36,0-3,2.19-3.83,4-.41.9-1.31.81-1.91,1.14a16.54,16.54,0,0,0-4.59-1.4c-4.08.48-.51,6.76-4.31,7.52-2.52.5-1.59,5.33.59,9.31L280,118.26H271.7v4q4.1.43,6,2.61t1.88,6.59a50.87,50.87,0,0,1-2,11.34,53.18,53.18,0,0,0-2.08,12.23,12.83,12.83,0,0,0,2.22,7.84,6.7,6.7,0,0,0,5.57,3,7.7,7.7,0,0,0,6.52-3.75q2.6-3.77,2.6-9.94a49.42,49.42,0,0,0-1.33-9.36,52.58,52.58,0,0,1-1.38-9.94q0-2.21.37-5.89a72.26,72.26,0,0,1,1.36-8.17l12.94-58a6.41,6.41,0,0,0,.79.63V87.92a329.23,329.23,0,0,1-2.57,43.74,82.11,82.11,0,0,1-12,33.65l2,1.92q15.41-15,21.34-33.47t5.95-45V81.74h5.71v85.19l14.77-3.46V79.82l8.25-1.25q-.12,29.54,4.38,51.51t14.83,37.52a47.27,47.27,0,0,1,5-10.57,10.21,10.21,0,0,1,6.52-4.53l1.21-3.32A69.07,69.07,0,0,1,367.16,133.1ZM305.47,56.55c-3,0-6.69-7-5-7.92,3.56-2,3-7.61,6.6-6.33a4.9,4.9,0,0,1,2.2,1.71,11.54,11.54,0,0,0,1.84,4.84c0,.3,0,.58,0,.84C311.15,52,308.46,56.55,305.47,56.55Z" transform="translate(0 -22.8)"/><path d="M168,85.26a14.67,14.67,0,0,1-3.79,8.14A7.62,7.62,0,0,1,157,95.5s4.88,2.54,6,3.85,1,4.29,1,7c0,.83-.32,17.91-.78,32.05-4.73,6.44-8.85,11.86-10.21,13.75l3.61.44c1.36-1,2.71-2.88,6.33-6.73a98.71,98.71,0,0,1-.77,11.2,21.41,21.41,0,0,0-1.45,6.41,7.62,7.62,0,0,0,2,5.62,6.39,6.39,0,0,0,2.46,1.54,10.15,10.15,0,0,1-3.18-7.82c0-5.28,2.86-12.35,5-14.54h0a9.17,9.17,0,0,0,1-3.76Z" transform="translate(0 -22.8)"/><path d="M252.73,116.42a17.14,17.14,0,0,1-.93-5.83,22.36,22.36,0,0,1,.19-2.82q.18-1.51.33-3.12l1.6-11.41-2-.52L246.59,108c-.59-.89-1.26-2.08-2-3.56s-1.61-3.25-2.51-5.32q3.42-5.58,6.15-10.74,1.89-3.56,3.52-7a93.36,93.36,0,0,1-8.27-13q-.87,3.14-1.89,6.09c-.87,2.55-1.83,5-2.86,7.49q-1-7.23-1.42-14.2-.36-5.67-.45-11.19A10.18,10.18,0,0,0,238.94,54a17.92,17.92,0,0,0,1.4,4.9c0-1.45,0-2.7,0-3.14,0-4.28,9.38-6.47,15.1-2a18.73,18.73,0,0,1,4.86,5.37,22.31,22.31,0,0,1,2.7,8.08c0-4.68.07-9.69-7.27-15.44l-4.95-4a12.56,12.56,0,0,0,1.8-2.59,5.93,5.93,0,0,0,.62-2.68A7,7,0,0,0,250,36.39q-3.31-2.22-10-2.79a3.28,3.28,0,0,0-1.39-.85,9.8,9.8,0,0,0-1.55-.34l-13.53-1.14V51.15h-25.2L184.47,44.6v16a2,2,0,0,0-1.94-.75l1.58-7.39-2.32-.67-5.66,14.17c-6,6.68-4.11,8-5.15,12a14.88,14.88,0,0,0-.33,1.76l-1.46,3.65V144a8,8,0,0,0,.89,3.42c2.22,1.81,5.3,7.79,5.3,13.09a13.38,13.38,0,0,1-3.8,9.48,6.57,6.57,0,0,0,3.06-2.14,10.69,10.69,0,0,0,2.07-7,29.46,29.46,0,0,0-1.35-7.07c-.4-1.39-.67-8.53-.85-17.17,0-1,1.75-1,2.7-1.6,15.44-4.66,34.59-10.29,41.18-13.19,5.34-2.35,11.4-7.68,15.08-11.47,2.45,5,9.11,22.77-7.14,17.09a97.29,97.29,0,0,0-11-3s7.08,11,13.73,16.49c-.18-.34-.69-1-.93-1.35-3.24-5.32-6.84-5.81-6.74-8.3C221.76,123,236,133,247.27,133s24.78,17.24,24.78,26.61c0,6.63-11.68,2.34-23-1.81,4.28,3.4,7.37,5.75,7.84,6.08,6.54,4.56,20.06,6,21.2,5.26a7.68,7.68,0,0,0,2.79-3.28C279.51,164.41,253.35,118.14,252.73,116.42ZM195.65,58c1.49,1.35,5.66,5,2.29,15.91-1.61,5.24,2.3,6.6-6.06,10.24-2.5,1.09-.81-.94-.95-8.22-.14-8-2.56-4.31-3-10.79S194.17,56.64,195.65,58ZM183,65.86c.82,0,4,4.78,5.63,9a4.3,4.3,0,0,1-.12-1c0-1.57-1.45-5.39-.81-5.39s2.43,2.74,2.43,4.31.37,3.41-.27,3.41a1.27,1.27,0,0,1-1.05-.83c1,3,1.17,5.59-1,5.91-2.69.41-1.27-6.92-9.57,4.18-2.37,3.18-5.57.34-4.2-4.94C175.13,76.45,168.6,66.39,183,65.86Zm-8.9,34.45a11.35,11.35,0,0,1,.16-1.73c.1-.64.2-1.25.31-1.83L175.84,91a38.11,38.11,0,0,1,8.63-8.2V85a142.18,142.18,0,0,1-1.68,23.21c-.41,2.47-4,8.31-8.49,15C174.17,111.73,174.14,101.29,174.14,100.31Zm36.33,20.42c-6.06,3.52-25.76,10.2-35.6,14.1,10.72-6.46,23.66-12.61,29.8-17.1,3.71-2.71,8.05-8.25,9.49-12.1a9.59,9.59,0,0,1,1.76,4.57,9.51,9.51,0,0,0,1.7,4.52C215.35,116.89,213.15,119.18,210.47,120.73Zm10.8-12.86s-7.42-6.34-3.1-7.68,6.47-12.41,6.47-12.41l3.1,12.68Zm8.06-53.65c.13.26.25.52.38.76a11.75,11.75,0,0,1,.46,3.53c0,2.43-2.69,3.15-5.66,3.37l1.58,19.43-5.16-4.65-4.39,11.93V75.68l.67-.41a18.35,18.35,0,0,0,1.57-1.06,1.53,1.53,0,0,0,.65-1.27,1.15,1.15,0,0,0-.78-1.08,7.54,7.54,0,0,0-2.27-.52l-10.43-1V92.1c0,7-.17,13.5-3.49,17.84-5.49,7.2-18.14,17-28,24.12,0-.24,0-.49,0-.73,7-7.89,13.57-15.57,15-17.58a41.77,41.77,0,0,0,6.49-14.25l1.91.31a5,5,0,0,0,4.64-3.15c1.07-2.14,1.6-5.25,1.6-9.35a29.33,29.33,0,0,0-.26-4,19.76,19.76,0,0,0-.92-3.85h-2a18.78,18.78,0,0,1-.77,5.11,7.31,7.31,0,0,1-2.48,3.57V81.35c2.9-3.43.66-4,1.95-7.83a20.88,20.88,0,0,0,1.12-5.12h23V66l-3.36-4h-.06c-2.38,0-4.86-.42-6.17-2-.84-1-1-2.93-1-4.34a9,9,0,0,0-3.84-.86c-4.42,0-8,3.06-8,6.84a5.8,5.8,0,0,0,.36,2c0-2.22,1.72-6.94,6.69-6.94s4.28,1.64,6.17,3.78c1.47,1.66.69,7.17-4.28,7.17-3.34,0-6.05-.81-7.49-2H200.7a10.47,10.47,0,0,0-3-6.2V54h16.15c2.35-2.49,10.25-3.4,13.31-2a4.16,4.16,0,0,1,1.57,1.11,2.71,2.71,0,0,1,.2-1.48c.63-1.66,3.79-5.94,5.91-5.94-.73-.6-1.18-1-1.51-1.34a51.44,51.44,0,0,0,0-8.21s3.77-3.69,7.05-.75,2.65,2.26,2,7.55,2.26,5.16,2.26,5.16l-4.15.63A15,15,0,0,0,239,49a4.92,4.92,0,0,0-1.13-1.09l-1.33-1a13.22,13.22,0,0,1,1.27,5.38c0,1.77-1.72,3.21-3.84,3.21C232.6,55.55,230.41,55.27,229.33,54.22Z" transform="translate(0 -22.8)"/><path d="M126,132.65c4.49-5.2,19.46-31.66,20.59-34.32L151,96.45c1.25-.41,3.5-1.28,3.5-1.28a39.58,39.58,0,0,1-13.7-7C133.63,82.73,133,77.87,133,77.87L126.8,86l-4.53.49s-4.71-8.88-7.16-8.88c-3.38,0,.87-8.73.87-11.93s18.15-11,18.15-11S132,62,131.33,65.94,133,77.06,133,77.06s-3.2-10.37,3.17-18.41c3.18-4,15.08-9,13.3-9.33-.37-.08-10.6-7.37-10.6-7.37l-5.36,8.31H122.27V33.41l3.12-1.25c2.91-1.25,4.37-2.49,4.37-3.74s-1.46-2.29-4.37-3.12L102.3,22.8V50.26H90.44l-20-6.86V80.69a25.07,25.07,0,0,1,9.14-7.9c2.58-1.44,5.85-1.36,9.59-2.93V54.63H102.3V80a13.72,13.72,0,0,1,2.56-.29c4.29,0,1.13,5.67-3.54,12,3.28-2,26.31,2.44,26.31,2.44a168.54,168.54,0,0,1-6.24,16.23,83.93,83.93,0,0,1-8.12,14.36c-4.16-5.42-17.73-17.84-18.43-21.15-1.51,2.47,1.4,6.51,2.46,9.71q3.12,8.73,8.12,19.34a147.49,147.49,0,0,1-18.1,17.48,116.4,116.4,0,0,1-20.6,13.11l1.87,3.12q6.87-1.25,23.1-8.11a82.41,82.41,0,0,0,22.47-14.36,156.06,156.06,0,0,0,13.73,11.86q10.61,8.12,16.85,10.61,2.49-6.87,4.37-9.36c1.25-1.67,3.74-3.12,7.49-4.37l1.25-3.75Q136,141.39,126,132.65ZM107.84,79.58c-3.11,0-5.12-5-5.12-8.88,0-2.42.87-8.53,1-10.48.35-4.44,5.55-2.16,6.72-2.16,3.12,0,4.9,4.79,4.9,8.65,0,1.79-2.08,8.22-3,9.46C111.37,77.61,109.52,79.58,107.84,79.58Z" transform="translate(0 -22.8)"/><path d="M87.75,92.42A14.6,14.6,0,0,1,90.61,87l7.18-5.1a3,3,0,0,0-3,1,17.77,17.77,0,0,0-4.59,3.6h0a8.91,8.91,0,0,1,.07-3.94C91,78,95.35,68,92,68a10.39,10.39,0,0,0-2.85.6v1.24a3.8,3.8,0,0,1,1.39-.35c2.73,0-.4,7.6-1.39,11.94-.08.37-.15.71-.2,1-1.25,8.15-6.41,12.12-9.37,12.12s-6.43-5.4-8.69-3.76c-4.85,3.51-8-2.33-4.69-4.72,1.61-1.16,2.47-2.76,3.69-4.63-.79.86-1.51,1.67-2.2,2.41-.46-.36-1-.75-1.64-1.17a14.11,14.11,0,0,0-7.32,0c3.69-5.12-7.66-10-7.66-10a5.11,5.11,0,0,0,0,1.38c-.5-1.17-3-2.47-4.44-2.22,1.42-.06,3.69,1.15,3.87,1.82.49,1.78-.16.94-.16,2.73s-2.62,4.87-3.81,4.87-1.8-5.08-1.8-6.88a1.06,1.06,0,0,0-.07.37c0,1.71.3,5.61,1.22,6.65l-.38.65H36.76A160.88,160.88,0,0,0,44.25,64c.63-1.74,2.87-5.61-.3-6.07,1-.28,4.38-4.38,3.5-5,.34-1.41.7-2.91,1-4.49a3.56,3.56,0,0,1-2.34.55A8.13,8.13,0,0,1,44,48.46c.94.61,1.56,1.84,3,3.78,1.57,2.18-2.31,4.79-5.21,5.21a2.82,2.82,0,0,1-.76-.06c2.69.76,4.18,1.35,2.15,6.5-1.65,4.17-1,8.54-6.31,9.2-4.74.59-12.2-5.47-8.64-8.64,2.65-2.35,4.09-5.33,5.38-7.18C32.41,58.8,31,60,29.52,60a2.22,2.22,0,0,1-.37,0,.5.5,0,0,1-1-.13.58.58,0,0,1,0-.19c-1.64-1-1.8-3.94-1.5-6.27,1.24-9.63,3-6.13,5.2-4.75,2.37,1.52,6.49-.95,5,3C38,48.81,39,47.51,41.79,47.78a5.44,5.44,0,0,1,1.57.33,2.09,2.09,0,0,1-.91-2.86c.85-1.93,2.64-2.55,4.38-3.21a2.92,2.92,0,0,1-.5.05,3.67,3.67,0,0,1-2.07-.77,1.28,1.28,0,0,1-.29-.87,4.68,4.68,0,0,1,1-2.75,5,5,0,0,1,1.34-1c1.33-.62,2.22,1.2,2.67,2.67a2.15,2.15,0,0,1-1.58,2.45,2.51,2.51,0,0,1,3.2,2.65,4.8,4.8,0,0,1-1,2.88,4.84,4.84,0,0,0,1.22-3.2,2.84,2.84,0,0,0-.72-2.05s2.17,0,2.8,0a1.83,1.83,0,0,1,1.06.48c-.24-.22-.87-.89-.87-1.13a.86.86,0,0,1,.34-.68.84.84,0,0,1,.53-.19.87.87,0,0,1,.84.69c0,.06,0,.38,0,.44a2.1,2.1,0,0,1-.38.89,2.84,2.84,0,0,1,.62-.5c.52-.1,17.92,0,17.92,0V39L57.36,27.17l-3.17,4.14c-1,.59-1.55,1.59-2.29,3l-1,1.25a5.11,5.11,0,0,0-1.15,1.35L49,38.54c-.51-1.11-1.48-2.78-2.49-2.3A3.87,3.87,0,0,0,45,37.3c-.68-3.44-5.19-6.22-9.11-6.22-4.35,0-8.11,2.23-8.36,6.7h-.95A4.18,4.18,0,0,1,27.07,40a4.67,4.67,0,0,1-.5,2.18h.83q-.78,8.77-2.09,17.11a1,1,0,0,0-.14.5,1.66,1.66,0,0,0,0,.22c-.45,2.84-1,5.65-1.5,8.42a9.4,9.4,0,0,0-.26,1.26Q22.15,76,20.53,82.1C17.82,92.59,9.32,114.48,6.91,117.46c-2,3.24-3.73,5.88-5.7,6s-1.1,3.82.17,4.69,4.65.51,4.42-1.56c-.27-2.49,1.4-5.08,2.57-7.06,2.16-2.52,7.79-6.86,10.29-9.36v51.19l8.2-1.76c1,.2,2.32.42,4.25.69,3.11.43,6-2,5.68-4.52-.35-3.09-.51-5.19-.66-6.6V138.9H46.75v6.24L63.6,142A105.16,105.16,0,0,1,53,162.62l2.49,3.12Q71.1,151.39,79.83,137q6.09-9.75,8.22-26.41C84.8,117.82,85.25,102,87.75,92.42ZM51.07,35.91a.72.72,0,0,1,.74.27c.84,1,1.72,1.53,2,2.94a1.67,1.67,0,0,1-.56,1.61,2.63,2.63,0,0,1-1.77.72,2.33,2.33,0,0,1-2.33-2.33C49.19,38.11,50.15,36.14,51.07,35.91Zm-6.48,5.92c.28-.16,1,.14,1,.44s-.61.52-1,.67-.7.23-.51-.42S44.22,42,44.59,41.83ZM36,31.72c3.75,0,8,2.61,8.84,5.87-.28.45-.6,1-1.1,1.88A1.91,1.91,0,0,0,44,41.7C42.46,45.4,40.67,48.41,36,49s-7.48-4.29-8.1-9C27.15,34.46,31.19,31.72,36,31.72ZM2.89,128.09a3.26,3.26,0,0,1-2.33-3c0-1.24.82-1.27,2.16-1.27a3.18,3.18,0,0,1,2.79,2.79C5.51,127.9,4.27,128.44,2.89,128.09ZM31.44,72.25c3.18,2,7.39,1.55,6,5s-2.66,6.29-6.81,6.81c-3.74.47-6.81-3-6.81-6.81S28.2,70.19,31.44,72.25ZM26.52,58.74a1,1,0,1,1,0,1.94,1,1,0,0,1,0-1.94Zm-1.16,7.82c1.19,0,3.4,2.76,3.4,4s-1.66,1-2.7,1.6c-1.57.85-2.28-.41-2.28-1.6S24.17,66.56,25.36,66.56Zm-1.9,92.73a1.41,1.41,0,0,1-.71-2.63,1.41,1.41,0,0,1,.71,2.63Zm12.8-3.72c.26,2.27-2.36,4.53-5.21,4.14-7.34-1-5.65-1.24-6.55-3.15-1-2.07,5.79-9.73,8.66-9.73S35.19,146.32,36.26,155.57Zm-4.64-41.66c-4.64,1.27-10-5.63-10-11.23s4-10.14,8.91-10.14,8.9,4.54,8.9,10.14S36,112.71,31.62,113.91Zm15.13,20.62H36.13V112.26a13.06,13.06,0,0,0,4-9.62,11.45,11.45,0,0,0-4-8.86V86.47H46.75ZM49.32,80c0-.47.71-1.59,1.35-1.59s1,1.12,1,1.59-.53.86-1.17.86S49.32,80.45,49.32,80Zm3.45,3.76a4.18,4.18,0,0,1-1-.87A4,4,0,0,1,51,81.35c-.09-.32.23-.52.48-.76.74-.74,0-1.13.25-2.21a2.44,2.44,0,0,1,1.08-1.45,4.1,4.1,0,0,1,2.11-.58,4,4,0,1,1,0,8A4.07,4.07,0,0,1,52.77,83.73Zm10.57,6.4c-.35,0-.69.05-1.05.05-3.81,0-6.9-1.64-6.9-3.66s3.09-3.66,6.9-3.66a10.32,10.32,0,0,1,5.22,1.27,18.83,18.83,0,0,1-2.7,2.46A3.53,3.53,0,0,0,63.34,90.13ZM70.46,99a137.27,137.27,0,0,1-6.24,41.19V92c1.16,1.29,3.29,1.75,5.83-.09a1.86,1.86,0,0,1,.41-.23Z" transform="translate(0 -22.8)"/><path d="M132.52,59.1" transform="translate(0 -22.8)"/></svg>
